<svg width="24" height="24" viewBox="0 0 24 24" fill="none" xmlns="http://www.w3.org/2000/svg">
<path d="M5 21C4.45 21 3.97933 20.8043 3.588 20.413C3.19667 20.0216 3.00067 19.5506 3 19V4.99998C3 4.44998 3.196 3.97931 3.588 3.58798C3.98 3.19664 4.45067 3.00064 5 2.99998H13.925L11.925 4.99998H5V19H19V12.05L21 10.05V19C21 19.55 20.8043 20.021 20.413 20.413C20.0217 20.805 19.5507 21.0006 19 21H5ZM9 15V10.75L18.175 1.57498C18.375 1.37498 18.6 1.22498 18.85 1.12498C19.1 1.02498 19.35 0.974976 19.6 0.974976C19.8667 0.974976 20.121 1.02498 20.363 1.12498C20.605 1.22498 20.8257 1.37498 21.025 1.57498L22.425 2.99998C22.6083 3.19998 22.75 3.42098 22.85 3.66298C22.95 3.90498 23 4.15064 23 4.39998C23 4.64931 22.9543 4.89531 22.863 5.13798C22.7717 5.38064 22.6257 5.60131 22.425 5.79998L13.25 15H9ZM11 13H12.4L18.2 7.19998L17.5 6.49998L16.775 5.79998L11 11.575V13Z" fill="white"/>
</svg>
